Simulation
nRows=38
nColumns=15
endheader
time  TH_x TH_y TH_z SC_y  SC_z  SC_x  AC_y  AC_z  AC_x  GH_y  GH_z  GH_yy  EL_x  PS_y
5.382082397003745  0.000000  0.000000  0.000000  -37.129039668764364  9.265034667969955  3.7556793430531057  51.34821883256302  14.623056640865375  3.9604920179886727  12.301583399532783  79.03122294825498  -14.235141161119415  13.4550116192483  120.000000
5.422247191011236  0.000000  0.000000  0.000000  -37.0312740377637  9.197078568519713  4.236564682135152  51.41359571473299  14.396970572959711  3.6522170933603717  12.283408949528994  78.89999388925192  -14.244371981985688  13.477100283137469  120.000000
5.4624119850187265  0.000000  0.000000  0.000000  -36.83083194605764  9.082721067374482  4.542328773039928  51.4842756807322  14.165354236085514  3.3636303106708443  12.31079700608297  78.54302134437646  -14.063945746670624  13.418664921861229  120.000000
5.502576779026217  0.000000  0.000000  0.000000  -36.527003335262684  8.921978257165353  4.659266670853247  51.56065413104897  13.92352075454188  3.0987298620947583  12.382454847757996  77.94246217804107  -13.707964206082357  13.295638701142982  120.000000
5.542741573033708  0.000000  0.000000  0.000000  -36.121156113374795  8.714581572148347  4.5775360764478386  51.64288621220805  13.667971029641711  2.8631183099162785  12.493304325573423  77.0795830034238  -13.196032749236133  13.130236218832064  120.000000
5.582906367041199  0.000000  0.000000  0.000000  -35.617126833359606  8.460348083676482  4.2926426634871175  51.730016623323365  13.397160476458785  2.6637122556244677  12.635059914787503  75.93704872870026  -12.550502109071326  12.946944592134344  120.000000
5.623071161048689  0.000000  0.000000  0.000000  -35.02165629428322  8.159769397911695  3.8067782465193165  51.81916547853082  13.112532116342125  2.508537565375943  12.796845326430043  74.50144100982618  -11.793537730383665  12.768168160570745  120.000000
5.66323595505618  0.000000  0.000000  0.000000  -34.34443854316339  7.814826219457958  3.129411867370039  51.9054434437468  12.819271121166782  2.406033844246845  12.9661182290955  72.76532535742655  -10.944195569543702  12.610736923632269  120.000000
5.70340074906367  0.000000  0.000000  0.000000  -33.59753069819533  7.429528515029674  2.2773652286932022  51.98273149729042  12.525825283530368  2.3641236184242174  13.129961639742751  70.728393510797  -10.01667274050468  12.484173635774628  120.000000
5.743565543071161  0.000000  0.000000  0.000000  -32.794258856244454  7.010210975264125  1.2741747997534028  52.0451339498494  12.242721196606714  2.389128876008866  13.276444347283105  68.39777769296377  -9.01966532817213  12.390709677555485  120.000000
5.7837303370786515  0.000000  0.000000  0.000000  -31.94806807411251  6.565641366563178  0.14892797332568383  52.08851981890586  11.98102750726779  2.4848793191050573  13.395848257981628  65.78770070221341  -7.956849223194235  12.326784688522766  120.000000
5.823895131086142  0.000000  0.000000  0.000000  -31.07185861583849  6.106723361545163  -1.0655777633230306  52.111686487873456  11.750744416841837  2.6523201500379  13.481437688140756  62.91874401931624  -6.827906262520705  12.285060195919538  120.000000
5.864059925093633  0.000000  0.000000  0.000000  -30.177878156474925  5.645806813999854  -2.334900428837813  52.116745404525815  11.559461511401535  2.8894079264547017  13.5297238557644  59.81682097023546  -5.629780983537448  12.256577890199537  120.000000
5.904224719101124  0.000000  0.000000  0.000000  -29.27827799516548  5.196013433574594  -3.6249873510181994  52.108795994625744  11.411593651322933  3.1917068105062714  13.540404020263551  56.51250534162742  -4.357938694096149  12.23261750112794  120.000000
5.944389513108614  0.000000  0.000000  0.000000  -28.385710153767548  4.770734097966649  -4.903830204564356  52.09518516328221  11.30869736332874  3.552796158537622  13.515618722085886  53.04065429057493  -3.0072817278726727  12.205997629777682  120.000000
5.984554307116105  0.000000  0.000000  0.000000  -27.513952482343665  4.383204022961749  -6.142040297010815  52.08428125845666  11.249604317891444  3.9646218640698128  13.458989812400192  49.439825101250094  -1.5727410824878103  12.171969351801582  120.000000
6.024719101123596  0.000000  0.000000  0.000000  -26.67825949070873  4.045575126834645  -7.313634939251259  52.08403978470203  11.231176692031283  4.418243966768849  13.374599033421926  45.75139431610425  -0.04966336926158641  12.128564929384552  120.000000
6.064883895131086  0.000000  0.000000  0.000000  -25.89413257535347  3.768340798898172  -8.395307736829855  52.10124648500341  11.249100171237185  4.9035377259024235  13.265943114394203  42.01799912250222  1.566071730118045  12.07706631885773  120.000000
6.1050486891385765  0.000000  0.000000  0.000000  -25.175695476855825  3.560219622467978  -9.365804684088738  52.14209284057963  11.299068940920028  5.4090900700499915  13.13615878856226  38.28203832270878  3.277255586490919  12.02214829442957  120.000000
6.145213483146067  0.000000  0.000000  0.000000  -24.534779319813833  3.427333591862022  -10.207085988177868  52.211416513893106  11.378163154764009  5.92256792492273  12.986999590723936  34.58336001714832  5.085547118078761  11.971590476119966  120.000000
6.185378277153558  0.000000  0.000000  0.000000  -23.980930247349367  3.372807726869471  -10.905103815046294  52.312359925425085  11.484479770473994  6.430515364678994  12.817254255242343  30.957245786351052  6.992724888641817  11.935674119235154  120.000000
6.225543071161049  0.000000  0.000000  0.000000  -23.52075958239966  3.396378664151249  -11.449282192485251  52.44690427722903  11.616949713960562  6.920194292115603  12.625166653644332  27.433865673092974  8.998905528157435  11.9267937364708  120.000000
6.265707865168539  0.000000  0.000000  0.000000  -23.156828700870925  3.493864631853963  -11.8319174930827  52.61688802209581  11.775587505408037  7.381536336689998  12.410613312317814  24.038595786681558  11.100833260556646  11.958572439531256  120.000000
6.30587265917603  0.000000  0.000000  0.000000  -22.887696121989656  3.6579625468168464  -12.04920260959421  52.82451645047489  11.961285573708482  7.80683098025935  12.175973008202549  20.791906514779267  13.290941337591239  12.04444561196468  120.000000
6.346037453183521  0.000000  0.000000  0.000000  -22.70878494465967  3.8785445117398907  -12.10179759033479  53.07145440171357  12.174520621697  8.1905130290018  11.926643752987431  17.70881444420062  15.556440290043323  12.19632688964238  120.000000
6.386202247191012  0.000000  0.000000  0.000000  -22.61316775569609  4.142815996031938  -11.994746578522383  53.35852978005335  12.41382629440944  8.528560605378033  11.67270581753078  14.798768452256025  17.877134093383425  12.423161981980172  120.000000
6.426367041198501  0.000000  0.000000  0.000000  -22.592321789113747  4.436104419117539  -11.737859230497937  53.6850612980623  12.67514373221358  8.81829697769417  11.4314824445528  12.065643771647164  20.22223614261357  12.729882795181089  120.000000
6.466531835205992  0.000000  0.000000  0.000000  -22.63813835133987  4.741801487578412  -11.34533559928864  54.047576317641216  12.951695066038612  9.058549583547238  11.232071964417315  9.508588039195033  22.544773810519416  13.115759999996431  120.000000
6.506696629213483  0.000000  0.000000  0.000000  -22.74315990318184  5.042346116231258  -10.834674706919392  54.43598323659748  13.23396289132585  9.251269896366805  11.11312241816066  7.122064273578209  24.78332364544174  13.57283708480764  120.000000
6.546861423220974  0.000000  0.000000  0.000000  -22.900431381377757  5.322241079566895  -10.226167228334505  54.835845751180685  13.511124779726806  9.398577812813928  11.137189804861592  4.8976287537201255  26.847464929246147  14.085415711190914  120.000000
6.587026217228464  0.000000  0.000000  0.000000  -23.102064354396923  5.57150853486612  -9.544595628976172  55.23621288493454  13.772995421463285  9.497331097745612  11.533790461994094  2.826609458441875  28.474606193463714  14.630988364772332  120.000000
6.627191011235955  0.000000  0.000000  0.000000  -23.33852729533001  5.784909578421245  -8.818159542826727  55.62699478767871  14.008509550066904  9.5433542934016  14.247829549520477  0.8994490304867989  27.685011739104898  15.182237033588638  120.000000
6.667355805243446  0.000000  0.000000  0.000000  -23.60220576608297  5.959526803522543  -8.075349058781912  55.99654149340813  14.20557540635548  9.534788631464457  -173.90562709404185  0.903167274893776  -142.37019597203738  15.709981420610683  120.000000
6.707520599250937  0.000000  0.000000  0.000000  -23.886603171280083  6.094836687094821  -7.341765628161913  56.335611285941404  14.354186477567353  9.471003224351195  -171.19817940904412  2.5794081711149985  -143.44933953522005  16.186696886487233  120.000000
6.747685393258427  0.000000  0.000000  0.000000  -24.182481157286652  6.191148003526569  -6.637545062991875  56.638982006144396  14.449752757978683  9.3544712043233  -170.54315851909362  4.1440741320228565  -142.66101091571508  16.590458342543574  120.000000
6.787850187265918  0.000000  0.000000  0.000000  -24.479515683058356  6.24944581446203  -5.976594724906869  56.90504683200488  14.492798796258006  9.194107248078552  -170.15840444973568  5.601503679856061  -141.79916314010697  16.908283502374466  120.000000
6.828014981273408  0.000000  0.000000  0.000000  -24.768215930957847  6.2721516862142686  -5.365449167926328  57.133822002438656  14.486131132459755  9.003020700996867  -169.8492760295734  6.954735709944602  -141.0580817723906  17.1376358011379  120.000000
6.868179775280899  0.000000  0.000000  0.000000  -25.039942130625455  6.2634098304301835  -4.804619320137312  57.32773445631088  14.43611894606893  8.791611392311518  -169.54702507860293  8.20328985284768  -140.49535392788823  17.28689824039679  120.000000
